<svg width="183" height="301" viewBox="0 0 183 301" fill="none" xmlns="http://www.w3.org/2000/svg">
  <path
    d="M75.9997 99.633C47.8602 196.33 68.3335 274.133 78.0001 300.133H99.0003C75.8003 258.933 81.3331 149.3 87.9998 99.633C93.6664 58.7997 103.5 5.13293 75.9997 99.633Z"
    fill="url(#paint0_linear_1_2)" />
  <path fill-rule="evenodd" clip-rule="evenodd"
    d="M26.574 110.264C26.443 80.6432 68.8955 60.1992 92.2887 52.9159C108.474 71.589 130.422 106.853 115.102 130.565C159.593 91.4134 127.78 62.6655 102.976 52.2294C128.17 57.541 162.36 70.1231 167.583 93.0074C170.515 58.7767 152.95 45.7205 133.246 42.5585C152.557 42.7132 172.012 47.1097 182.5 60.7092C174.133 40.0634 163.037 29.3568 151.396 24.9217C161.551 23.642 170.935 24.4177 178.009 28.608C143.85 -11.2414 102.463 26.4524 92.1012 44.6863C91.9261 44.8987 91.756 45.1096 91.5909 45.3188C86.3169 24.4127 58.8126 -19.1879 14.6879 9.45823C22.7904 7.26001 32.0313 8.92913 41.3624 12.7666C28.8042 14.0253 14.7904 21.4359 0.258789 39.076C18.0904 26.2211 44.72 30.5639 66.3758 38.4665C43.1685 31.627 13.1365 32.6335 4.3828 67.3095C12.4574 55.5665 32.6089 51.0883 52.8024 50.0406C32.2645 55.3246 15.0722 71.5995 26.574 110.264ZM92.4905 47.6228C92.4115 47.643 92.3327 47.6632 92.2542 47.6834C92.2589 47.6959 92.2637 47.7085 92.2684 47.7211C92.342 47.6883 92.416 47.6555 92.4905 47.6228Z"
    fill="url(#paint1_linear_1_2)" />
  <defs>
    <linearGradient id="paint0_linear_1_2" x1="82.095" y1="45.5221" x2="82.095" y2="300.133"
      gradientUnits="userSpaceOnUse">
      <stop stop-color="#FCAA58" />
      <stop offset="1" stop-color="#A6255E" />
    </linearGradient>
    <linearGradient id="paint1_linear_1_2" x1="91.3794" y1="0" x2="91.3794" y2="130.565"
      gradientUnits="userSpaceOnUse">
      <stop stop-color="#34AD91" />
      <stop offset="1" stop-color="#2B9079" />
    </linearGradient>
  </defs>
</svg>