<svg
  xmlns="http://www.w3.org/2000/svg"
  width="103"
  height="144"
  viewBox="0 0 103 144"
  fill="none"
>
  <path
    fill-rule="evenodd"
    clip-rule="evenodd"
    d="M102.239 56.1381C101.177 67.3197 96.6734 77.0049 90.4173 83.2529C94.2232 87.9109 96.2376 93.6485 95.6675 99.6495C94.6571 110.286 85.828 118.581 74.3734 120.902C74.3882 121.743 74.356 122.593 74.2746 123.451C73.1197 135.608 62.4935 144.542 50.5404 143.407C38.6486 142.277 29.9235 131.606 30.9713 119.526C13.5915 117.615 0.623839 105.356 1.90096 91.9122C2.45093 86.1228 5.55381 81.0466 10.3007 77.2544C3.49881 68.5928 -0.186153 55.5899 1.15416 41.4807C3.43535 17.4669 19.4098 -0.658238 36.834 0.996984C48.0108 2.05873 57.0693 11.0014 61.5261 23.6156C66.626 18.6941 72.8422 16.0315 79.291 16.6441C93.9048 18.0324 104.179 35.7144 102.239 56.1381Z"
    fill="url(#paint0_linear_240_437)"
    fill-opacity="0.74"></path>
  <defs>
    <linearGradient
      id="paint0_linear_240_437"
      x1="94.1399"
      y1="68.4398"
      x2="23.2787"
      y2="61.7084"
      gradientUnits="userSpaceOnUse"
    >
      <stop stop-color="#F8F8FB"></stop>
      <stop offset="1" stop-color="#C8CCE4"></stop>
    </linearGradient>
  </defs>
</svg>