<svg width="297" height="68" viewBox="0 0 297 68" fill="none" xmlns="http://www.w3.org/2000/svg">
<path d="M296.189 67.5758H0C0 67.5758 22.8729 54.6313 30.4006 52.6821C37.9284 50.7328 49.057 43.6303 60.8013 37.7883C72.0307 32.2024 72.5643 28.7914 83.9739 22.0418C93.8634 16.1914 114.669 7.68914 117.014 6.36267C116.209 6.48417 116.023 6.47697 116.681 6.29528C117.299 6.12444 117.375 6.1588 117.014 6.36267C121.891 5.62663 149.459 0.167236 149.459 0.167236C149.459 0.167236 174.492 1.3601 183.562 6.29528C192.632 11.2305 192.537 13.0246 208.461 20.4901C223.807 31.5974 232.492 39.245 255.164 45.2539C281.423 54.9045 280.675 59.1347 296.189 67.5758Z" fill="url(#paint0_linear_240_407)"/>
<defs>
<linearGradient id="paint0_linear_240_407" x1="148.094" y1="-27.2355" x2="147.715" y2="67.5846" gradientUnits="userSpaceOnUse">
<stop stop-color="#D75F14"/>
<stop offset="1" stop-color="#5D2807"/>
</linearGradient>
</defs>
</svg>
