<svg xmlns="http://www.w3.org/2000/svg" width="198" height="153" viewBox="0 0 198 153" fill="none">
  <path d="M14.974 44.5467L50.2104 6.24648C54.8065 -3.45629 87.2716 3.26169 107.405 2.67175C119.978 2.30336 132.514 -3.15109 143.663 2.67178C153.815 7.97366 162.047 27.6946 162.047 27.6946C170.239 37.759 174.688 41.3471 180.942 52.7175C186.559 62.9309 201.88 90.5406 196.773 95.1032C195.058 96.6352 192.177 99.1885 190.134 99.1885C171.378 99.1885 165.08 44.0461 157.962 61.3989C153.148 73.1338 163.11 80.528 167.154 92.5498C170.614 102.837 171.448 109.184 176.857 118.594C181.668 126.965 189.976 128.598 192.177 137.999C193.359 143.048 195.567 147.354 192.177 151.277C187.098 157.154 180.898 146.403 174.814 141.574C164.754 133.589 163.116 125.294 155.408 115.019C146.025 102.51 136.735 97.864 130.896 83.3577C127.609 75.1901 131.211 68.336 125.79 61.3989C119.742 53.6609 109.958 44.4521 102.809 51.1855C95.4683 58.0997 111.018 64.9107 113.533 74.6763C117.116 88.5812 118.963 98.1517 113.533 111.445C109.353 121.681 106.271 136.512 95.66 133.403C84.5579 130.152 98.0397 115.201 96.1707 103.785C93.8012 89.3114 82.2988 83.7186 81.8719 69.0589C81.7084 63.4453 86.8452 59.1983 83.4039 54.7602C78.4415 48.3603 69.9101 59.9457 67.0625 67.5269C63.3512 77.4076 76.7723 82.0071 77.2759 92.5498C77.8055 103.637 75.1515 110.659 68.5945 119.615C62.798 127.533 55.0517 142.397 48.6783 134.935C44.5334 130.083 43.892 125.973 48.6783 118.594L60.9344 99.6992C65.7207 92.3203 56.4872 86.0327 53.785 77.2297C50.6741 67.0947 49.447 61.7597 50.2104 51.1855C50.9738 40.6113 28.7622 61.3989 28.7622 61.3989C19.258 71.142 8.84608 82.3364 1.69664 83.3577C-5.4528 84.3791 14.974 44.5467 14.974 44.5467Z" fill="url(#paint0_linear_240_409)"/>
  <defs>
    <linearGradient id="paint0_linear_240_409" x1="99.1368" y1="2.06227" x2="99.1368" y2="152.989" gradientUnits="userSpaceOnUse">
      <stop stop-color="#F1A81F"/>
      <stop offset="0.56" stop-color="#E65F17"/>
      <stop offset="1" stop-color="#AE1212"/>
    </linearGradient>
  </defs>
</svg>